<mxfile host="Electron" agent="Mozilla/5.0 (Windows NT 10.0; Win64; x64) AppleWebKit/537.36 (KHTML, like Gecko) draw.io/25.0.2 Chrome/128.0.6613.186 Electron/32.2.5 Safari/537.36" version="25.0.2">
  <diagram id="C5RBs43oDa-KdzZeNtuy" name="Page-1">
    <mxGraphModel dx="875" dy="598" grid="1" gridSize="10" guides="1" tooltips="1" connect="1" arrows="1" fold="1" page="1" pageScale="1" pageWidth="827" pageHeight="1169" math="0" shadow="0">
      <root>
        <mxCell id="WIyWlLk6GJQsqaUBKTNV-0" />
        <mxCell id="WIyWlLk6GJQsqaUBKTNV-1" parent="WIyWlLk6GJQsqaUBKTNV-0" />
        <mxCell id="XPjGz2nd4c44nC0LYBSg-3" value="" style="edgeStyle=orthogonalEdgeStyle;rounded=0;orthogonalLoop=1;jettySize=auto;html=1;" edge="1" parent="WIyWlLk6GJQsqaUBKTNV-1" source="XPjGz2nd4c44nC0LYBSg-0" target="XPjGz2nd4c44nC0LYBSg-2">
          <mxGeometry relative="1" as="geometry" />
        </mxCell>
        <mxCell id="XPjGz2nd4c44nC0LYBSg-0" value="start" style="ellipse;whiteSpace=wrap;html=1;" vertex="1" parent="WIyWlLk6GJQsqaUBKTNV-1">
          <mxGeometry x="360" y="40" width="120" height="80" as="geometry" />
        </mxCell>
        <mxCell id="XPjGz2nd4c44nC0LYBSg-1" value="end" style="ellipse;whiteSpace=wrap;html=1;" vertex="1" parent="WIyWlLk6GJQsqaUBKTNV-1">
          <mxGeometry x="380" y="640" width="120" height="80" as="geometry" />
        </mxCell>
        <mxCell id="XPjGz2nd4c44nC0LYBSg-5" value="" style="edgeStyle=orthogonalEdgeStyle;rounded=0;orthogonalLoop=1;jettySize=auto;html=1;" edge="1" parent="WIyWlLk6GJQsqaUBKTNV-1" source="XPjGz2nd4c44nC0LYBSg-2" target="XPjGz2nd4c44nC0LYBSg-4">
          <mxGeometry relative="1" as="geometry" />
        </mxCell>
        <mxCell id="XPjGz2nd4c44nC0LYBSg-2" value="input a,b,c" style="shape=parallelogram;perimeter=parallelogramPerimeter;whiteSpace=wrap;html=1;fixedSize=1;" vertex="1" parent="WIyWlLk6GJQsqaUBKTNV-1">
          <mxGeometry x="360" y="160" width="120" height="60" as="geometry" />
        </mxCell>
        <mxCell id="XPjGz2nd4c44nC0LYBSg-7" value="" style="edgeStyle=orthogonalEdgeStyle;rounded=0;orthogonalLoop=1;jettySize=auto;html=1;" edge="1" parent="WIyWlLk6GJQsqaUBKTNV-1" source="XPjGz2nd4c44nC0LYBSg-4" target="XPjGz2nd4c44nC0LYBSg-6">
          <mxGeometry relative="1" as="geometry" />
        </mxCell>
        <mxCell id="XPjGz2nd4c44nC0LYBSg-4" value="denta= b^2-4ac" style="rounded=0;whiteSpace=wrap;html=1;" vertex="1" parent="WIyWlLk6GJQsqaUBKTNV-1">
          <mxGeometry x="360" y="260" width="120" height="60" as="geometry" />
        </mxCell>
        <mxCell id="XPjGz2nd4c44nC0LYBSg-13" value="" style="edgeStyle=orthogonalEdgeStyle;rounded=0;orthogonalLoop=1;jettySize=auto;html=1;" edge="1" parent="WIyWlLk6GJQsqaUBKTNV-1" source="XPjGz2nd4c44nC0LYBSg-6">
          <mxGeometry relative="1" as="geometry">
            <mxPoint x="510" y="400" as="targetPoint" />
          </mxGeometry>
        </mxCell>
        <mxCell id="XPjGz2nd4c44nC0LYBSg-6" value="denta&amp;lt;0" style="strokeWidth=2;html=1;shape=mxgraph.flowchart.decision;whiteSpace=wrap;" vertex="1" parent="WIyWlLk6GJQsqaUBKTNV-1">
          <mxGeometry x="370" y="350" width="100" height="100" as="geometry" />
        </mxCell>
        <mxCell id="XPjGz2nd4c44nC0LYBSg-11" style="edgeStyle=orthogonalEdgeStyle;rounded=0;orthogonalLoop=1;jettySize=auto;html=1;exitX=0.5;exitY=1;exitDx=0;exitDy=0;exitPerimeter=0;entryX=0;entryY=0.5;entryDx=0;entryDy=0;" edge="1" parent="WIyWlLk6GJQsqaUBKTNV-1" source="XPjGz2nd4c44nC0LYBSg-8" target="XPjGz2nd4c44nC0LYBSg-1">
          <mxGeometry relative="1" as="geometry" />
        </mxCell>
        <mxCell id="XPjGz2nd4c44nC0LYBSg-8" value="pt vô nghiệm" style="strokeWidth=2;html=1;shape=mxgraph.flowchart.display;whiteSpace=wrap;" vertex="1" parent="WIyWlLk6GJQsqaUBKTNV-1">
          <mxGeometry x="230" y="440" width="100" height="60" as="geometry" />
        </mxCell>
        <mxCell id="XPjGz2nd4c44nC0LYBSg-9" style="edgeStyle=orthogonalEdgeStyle;rounded=0;orthogonalLoop=1;jettySize=auto;html=1;exitX=0;exitY=0.5;exitDx=0;exitDy=0;exitPerimeter=0;entryX=0.5;entryY=0;entryDx=0;entryDy=0;entryPerimeter=0;" edge="1" parent="WIyWlLk6GJQsqaUBKTNV-1" source="XPjGz2nd4c44nC0LYBSg-6" target="XPjGz2nd4c44nC0LYBSg-8">
          <mxGeometry relative="1" as="geometry" />
        </mxCell>
        <mxCell id="XPjGz2nd4c44nC0LYBSg-10" value="true" style="text;html=1;align=center;verticalAlign=middle;resizable=0;points=[];autosize=1;strokeColor=none;fillColor=none;" vertex="1" parent="WIyWlLk6GJQsqaUBKTNV-1">
          <mxGeometry x="320" y="370" width="40" height="30" as="geometry" />
        </mxCell>
        <mxCell id="XPjGz2nd4c44nC0LYBSg-18" value="" style="edgeStyle=orthogonalEdgeStyle;rounded=0;orthogonalLoop=1;jettySize=auto;html=1;" edge="1" parent="WIyWlLk6GJQsqaUBKTNV-1" source="XPjGz2nd4c44nC0LYBSg-14" target="XPjGz2nd4c44nC0LYBSg-17">
          <mxGeometry relative="1" as="geometry" />
        </mxCell>
        <mxCell id="XPjGz2nd4c44nC0LYBSg-25" style="edgeStyle=orthogonalEdgeStyle;rounded=0;orthogonalLoop=1;jettySize=auto;html=1;exitX=1;exitY=0.5;exitDx=0;exitDy=0;exitPerimeter=0;entryX=0.5;entryY=0;entryDx=0;entryDy=0;" edge="1" parent="WIyWlLk6GJQsqaUBKTNV-1" source="XPjGz2nd4c44nC0LYBSg-14" target="XPjGz2nd4c44nC0LYBSg-24">
          <mxGeometry relative="1" as="geometry" />
        </mxCell>
        <mxCell id="XPjGz2nd4c44nC0LYBSg-14" value="denta=0" style="strokeWidth=2;html=1;shape=mxgraph.flowchart.decision;whiteSpace=wrap;" vertex="1" parent="WIyWlLk6GJQsqaUBKTNV-1">
          <mxGeometry x="510" y="350" width="100" height="100" as="geometry" />
        </mxCell>
        <mxCell id="XPjGz2nd4c44nC0LYBSg-15" value="false" style="text;html=1;align=center;verticalAlign=middle;resizable=0;points=[];autosize=1;strokeColor=none;fillColor=none;" vertex="1" parent="WIyWlLk6GJQsqaUBKTNV-1">
          <mxGeometry x="460" y="370" width="50" height="30" as="geometry" />
        </mxCell>
        <mxCell id="XPjGz2nd4c44nC0LYBSg-22" value="" style="edgeStyle=orthogonalEdgeStyle;rounded=0;orthogonalLoop=1;jettySize=auto;html=1;" edge="1" parent="WIyWlLk6GJQsqaUBKTNV-1" source="XPjGz2nd4c44nC0LYBSg-17" target="XPjGz2nd4c44nC0LYBSg-21">
          <mxGeometry relative="1" as="geometry" />
        </mxCell>
        <mxCell id="XPjGz2nd4c44nC0LYBSg-17" value="x1=x2=-b/2a" style="rounded=0;whiteSpace=wrap;html=1;" vertex="1" parent="WIyWlLk6GJQsqaUBKTNV-1">
          <mxGeometry x="500" y="480" width="120" height="60" as="geometry" />
        </mxCell>
        <mxCell id="XPjGz2nd4c44nC0LYBSg-19" value="true" style="text;html=1;align=center;verticalAlign=middle;resizable=0;points=[];autosize=1;strokeColor=none;fillColor=none;" vertex="1" parent="WIyWlLk6GJQsqaUBKTNV-1">
          <mxGeometry x="560" y="450" width="40" height="30" as="geometry" />
        </mxCell>
        <mxCell id="XPjGz2nd4c44nC0LYBSg-20" value="false" style="text;html=1;align=center;verticalAlign=middle;resizable=0;points=[];autosize=1;strokeColor=none;fillColor=none;" vertex="1" parent="WIyWlLk6GJQsqaUBKTNV-1">
          <mxGeometry x="610" y="370" width="50" height="30" as="geometry" />
        </mxCell>
        <mxCell id="XPjGz2nd4c44nC0LYBSg-23" style="edgeStyle=orthogonalEdgeStyle;rounded=0;orthogonalLoop=1;jettySize=auto;html=1;exitX=0.5;exitY=1;exitDx=0;exitDy=0;exitPerimeter=0;entryX=1;entryY=0.5;entryDx=0;entryDy=0;" edge="1" parent="WIyWlLk6GJQsqaUBKTNV-1" source="XPjGz2nd4c44nC0LYBSg-21" target="XPjGz2nd4c44nC0LYBSg-1">
          <mxGeometry relative="1" as="geometry" />
        </mxCell>
        <mxCell id="XPjGz2nd4c44nC0LYBSg-21" value="pt có nghệm kép" style="strokeWidth=2;html=1;shape=mxgraph.flowchart.display;whiteSpace=wrap;" vertex="1" parent="WIyWlLk6GJQsqaUBKTNV-1">
          <mxGeometry x="510" y="570" width="100" height="60" as="geometry" />
        </mxCell>
        <mxCell id="XPjGz2nd4c44nC0LYBSg-28" value="" style="edgeStyle=orthogonalEdgeStyle;rounded=0;orthogonalLoop=1;jettySize=auto;html=1;" edge="1" parent="WIyWlLk6GJQsqaUBKTNV-1" source="XPjGz2nd4c44nC0LYBSg-24" target="XPjGz2nd4c44nC0LYBSg-26">
          <mxGeometry relative="1" as="geometry" />
        </mxCell>
        <mxCell id="XPjGz2nd4c44nC0LYBSg-24" value="x1=(-b+căn(denta))/2a&lt;div&gt;x2=(-b-căn(denta))/2a&lt;div&gt;&lt;br&gt;&lt;/div&gt;&lt;/div&gt;" style="rounded=0;whiteSpace=wrap;html=1;" vertex="1" parent="WIyWlLk6GJQsqaUBKTNV-1">
          <mxGeometry x="640" y="480" width="130" height="60" as="geometry" />
        </mxCell>
        <mxCell id="XPjGz2nd4c44nC0LYBSg-27" style="edgeStyle=orthogonalEdgeStyle;rounded=0;orthogonalLoop=1;jettySize=auto;html=1;exitX=0.5;exitY=1;exitDx=0;exitDy=0;exitPerimeter=0;" edge="1" parent="WIyWlLk6GJQsqaUBKTNV-1" source="XPjGz2nd4c44nC0LYBSg-26">
          <mxGeometry relative="1" as="geometry">
            <mxPoint x="540" y="680" as="targetPoint" />
            <Array as="points">
              <mxPoint x="705" y="680" />
            </Array>
          </mxGeometry>
        </mxCell>
        <mxCell id="XPjGz2nd4c44nC0LYBSg-26" value="pt có 2 nghiệm phân biệt" style="strokeWidth=2;html=1;shape=mxgraph.flowchart.display;whiteSpace=wrap;" vertex="1" parent="WIyWlLk6GJQsqaUBKTNV-1">
          <mxGeometry x="655" y="570" width="100" height="60" as="geometry" />
        </mxCell>
      </root>
    </mxGraphModel>
  </diagram>
</mxfile>
